<svg xmlns="http://www.w3.org/2000/svg" width="1000" height="1000" xml:space="preserve"><rect width="100%" height="100%" fill="rgba(255,255,255,0)"/><g><path style="stroke:none;stroke-width:1;stroke-dasharray:none;stroke-linecap:butt;stroke-dashoffset:0;stroke-linejoin:miter;stroke-miterlimit:4;is-custom-font:none;font-file-url:none;fill:#171923;fill-rule:nonzero;opacity:1" transform="translate(45.454 148.136) scale(3.0303)" d="M61.93 169.21v5.57h-.46c-.35-1.45-1-2.57-1.94-3.34-.95-.77-2.02-1.16-3.22-1.16-1 0-1.92.29-2.76.86-.84.58-1.45 1.33-1.84 2.26-.5 1.19-.75 2.52-.75 3.98 0 1.44.18 2.75.55 3.93.36 1.18.93 2.07 1.71 2.68.77.6 1.78.91 3.01.91 1.01 0 1.94-.22 2.78-.66.84-.44 1.73-1.2 2.66-2.29v1.39c-.9.94-1.84 1.62-2.81 2.04-.98.42-2.12.63-3.42.63-1.71 0-3.24-.34-4.57-1.03s-2.36-1.67-3.08-2.96a8.305 8.305 0 0 1-1.08-4.11c0-1.53.4-2.99 1.2-4.36.8-1.37 1.88-2.44 3.25-3.2a8.77 8.77 0 0 1 4.34-1.14c1.13 0 2.32.25 3.58.73.73.28 1.19.43 1.39.43a.9.9 0 0 0 .66-.28c.19-.19.31-.48.36-.88h.44zM63.82 169.58h8.29v.44h-.41c-.62 0-1.05.07-1.29.2-.23.13-.4.31-.5.54-.1.23-.15.8-.15 1.72v7.87c0 1.44.11 2.39.33 2.86.22.47.57.85 1.07 1.16.5.31 1.13.46 1.88.46.87 0 1.61-.2 2.22-.59.61-.39 1.07-.93 1.37-1.62.3-.69.46-1.88.46-3.59v-6.55c0-.72-.08-1.23-.23-1.54-.15-.31-.34-.52-.57-.64-.36-.18-.86-.27-1.5-.27v-.44h5.56v.44h-.33c-.45 0-.83.09-1.13.27-.3.18-.52.45-.65.82-.1.25-.15.71-.15 1.36v6.1c0 1.89-.12 3.25-.37 4.09-.25.84-.86 1.61-1.82 2.31-.96.7-2.28 1.05-3.95 1.05-1.39 0-2.46-.19-3.22-.56-1.04-.51-1.77-1.15-2.19-1.94-.43-.79-.64-1.85-.64-3.19v-7.87c0-.92-.05-1.5-.15-1.72-.1-.22-.28-.4-.53-.54-.25-.13-.72-.2-1.4-.19v-.44zM96.1 180.01l-.6 5.64H81.23v-.44h.53c.47 0 .84-.08 1.13-.25.21-.11.36-.3.47-.57.09-.19.13-.69.13-1.49v-10.57c0-.82-.04-1.33-.13-1.54-.09-.2-.26-.39-.53-.54-.26-.15-.62-.23-1.07-.23h-.53v-.44h8.57v.44h-.7c-.47 0-.84.08-1.13.25-.21.11-.37.3-.49.57-.09.19-.13.69-.13 1.49v10.24c0 .82.05 1.34.14 1.57.1.22.28.39.56.5.2.07.68.11 1.43.11h1.34c.85 0 1.56-.15 2.13-.45.57-.3 1.06-.77 1.48-1.42.41-.65.81-1.6 1.18-2.87h.49zM110.05 169.58v4.35h-.43c-.25-1-.53-1.72-.84-2.16-.31-.44-.73-.79-1.27-1.05-.3-.14-.83-.21-1.58-.21h-1.2v12.39c0 .82.05 1.34.14 1.54.09.21.27.39.53.54.26.15.63.23 1.08.23h.53v.44H98.6v-.44h.53c.47 0 .84-.08 1.13-.25.21-.11.37-.3.49-.57.09-.19.13-.69.13-1.49v-12.39h-1.16c-1.08 0-1.87.23-2.36.69-.69.64-1.12 1.55-1.3 2.74h-.45v-4.35h14.44zM111.5 169.58h8.29v.44h-.41c-.62 0-1.05.07-1.29.2-.23.13-.4.31-.5.54-.1.23-.15.8-.15 1.72v7.87c0 1.44.11 2.39.33 2.86.22.47.57.85 1.07 1.16.5.31 1.13.46 1.88.46.87 0 1.61-.2 2.22-.59.61-.39 1.07-.93 1.37-1.62.3-.69.46-1.88.46-3.59v-6.55c0-.72-.08-1.23-.23-1.54-.15-.31-.34-.52-.57-.64-.36-.18-.86-.27-1.5-.27v-.44h5.56v.44h-.33c-.45 0-.83.09-1.13.27-.3.18-.52.45-.65.82-.1.25-.15.71-.15 1.36v6.1c0 1.89-.12 3.25-.37 4.09-.25.84-.86 1.61-1.82 2.31-.96.7-2.28 1.05-3.95 1.05-1.39 0-2.46-.19-3.22-.56-1.04-.51-1.77-1.15-2.19-1.94-.43-.79-.64-1.85-.64-3.19v-7.87c0-.92-.05-1.5-.15-1.72-.1-.22-.28-.4-.53-.54-.25-.13-.72-.2-1.4-.19v-.44zM134.9 178.33v4.5c0 .87.05 1.42.16 1.64.11.23.29.4.56.54.27.13.77.2 1.5.2v.44h-8.22v-.44c.74 0 1.25-.07 1.51-.21.26-.14.45-.32.56-.54.11-.22.16-.77.16-1.64V172.4c0-.87-.05-1.42-.16-1.64-.11-.22-.29-.4-.56-.54-.27-.13-.77-.2-1.5-.2v-.44h7.47c1.94 0 3.37.13 4.27.4.9.27 1.64.76 2.2 1.49.57.72.85 1.57.85 2.54 0 1.19-.43 2.17-1.28 2.94-.55.49-1.31.86-2.29 1.1l3.86 5.44c.51.7.87 1.14 1.08 1.32.32.24.7.38 1.13.4v.44h-5.06l-5.18-7.32h-1.06zm0-7.88v7.04h.68c1.1 0 1.92-.1 2.46-.3.55-.2.97-.56 1.29-1.09.31-.53.47-1.21.47-2.06 0-1.22-.29-2.13-.86-2.71-.57-.58-1.5-.88-2.77-.88h-1.27z"/><path style="stroke:none;stroke-width:1;stroke-dasharray:none;stroke-linecap:butt;stroke-dashoffset:0;stroke-linejoin:miter;stroke-miterlimit:4;is-custom-font:none;font-file-url:none;fill:#171923;fill-rule:nonzero;opacity:1" transform="translate(45.454 148.136) scale(3.0303)" d="M156.07 181.08h-5.68l-.68 1.56c-.22.52-.33.95-.33 1.29 0 .45.18.78.55 1 .21.13.74.22 1.58.28v.44h-5.34v-.44c.58-.09 1.05-.33 1.42-.72s.83-1.2 1.37-2.42l5.75-12.82h.23l5.79 13.18c.55 1.25 1.01 2.03 1.36 2.36.27.25.65.39 1.14.43v.44h-7.77v-.44h.32c.62 0 1.06-.09 1.32-.26.17-.13.26-.31.26-.55 0-.14-.02-.29-.07-.44-.02-.07-.13-.37-.36-.89l-.86-2zm-.4-.88-2.39-5.53-2.46 5.53h4.85z"/><path style="stroke:none;stroke-width:1;stroke-dasharray:none;stroke-linecap:butt;stroke-dashoffset:0;stroke-linejoin:miter;stroke-miterlimit:4;is-custom-font:none;font-file-url:none;fill:#171923;fill-rule:nonzero;opacity:1" transform="translate(45.455 148.136) scale(3.0303)" d="m178.83 180.01-.6 5.64h-14.27v-.44h.53c.47 0 .84-.08 1.13-.25.21-.11.36-.3.47-.57.09-.19.13-.69.13-1.49v-10.57c0-.82-.04-1.33-.13-1.54-.09-.2-.26-.39-.53-.54-.26-.15-.62-.23-1.07-.23h-.53v-.44h8.57v.44h-.7c-.47 0-.84.08-1.13.25-.21.11-.37.3-.49.57-.09.19-.13.69-.13 1.49v10.24c0 .82.05 1.34.14 1.57.1.22.28.39.56.5.2.07.68.11 1.43.11h1.34c.85 0 1.56-.15 2.13-.45.57-.3 1.06-.77 1.48-1.42.41-.65.81-1.6 1.18-2.87h.49zM190.97 178.37v4.46c0 .87.05 1.42.16 1.64.11.23.3.4.57.54.27.13.77.2 1.5.2v.44h-8.16v-.44c.74 0 1.25-.07 1.51-.21.26-.14.45-.32.56-.54.11-.22.16-.77.16-1.64V172.4c0-.87-.05-1.42-.16-1.64-.11-.22-.29-.4-.56-.54s-.77-.2-1.5-.2v-.44h7c2.31 0 3.96.41 4.97 1.23 1 .82 1.5 1.85 1.5 3.08 0 1.04-.32 1.94-.97 2.68-.65.74-1.54 1.25-2.68 1.52-.78.19-2.07.28-3.9.28zm0-7.86v6.94c.26.02.46.02.59.02.96 0 1.71-.29 2.23-.86s.78-1.46.78-2.66c0-1.19-.26-2.07-.78-2.62s-1.3-.83-2.33-.83h-.49zM207.54 181.08h-5.68l-.68 1.56c-.22.52-.33.95-.33 1.29 0 .45.18.78.55 1 .21.13.74.22 1.58.28v.44h-5.34v-.44c.58-.09 1.05-.33 1.42-.72.37-.39.83-1.2 1.37-2.42l5.75-12.82h.23l5.79 13.18c.55 1.25 1.01 2.03 1.36 2.36.27.25.65.39 1.14.43v.44h-7.77v-.44h.32c.62 0 1.06-.09 1.32-.26.17-.13.26-.31.26-.55 0-.14-.02-.29-.07-.44-.02-.07-.13-.37-.36-.89l-.86-2zm-.4-.88-2.39-5.53-2.46 5.53h4.85z"/><path style="stroke:none;stroke-width:1;stroke-dasharray:none;stroke-linecap:butt;stroke-dashoffset:0;stroke-linejoin:miter;stroke-miterlimit:4;is-custom-font:none;font-file-url:none;fill:#171923;fill-rule:nonzero;opacity:1" transform="translate(45.454 148.136) scale(3.0303)" d="M221.42 178.33v4.5c0 .87.05 1.42.16 1.64.11.23.29.4.56.54.27.13.77.2 1.5.2v.44h-8.22v-.44c.74 0 1.25-.07 1.51-.21.26-.14.45-.32.56-.54.11-.22.16-.77.16-1.64V172.4c0-.87-.05-1.42-.16-1.64-.11-.22-.29-.4-.56-.54s-.77-.2-1.5-.2v-.44h7.47c1.94 0 3.37.13 4.27.4.9.27 1.64.76 2.2 1.49.57.72.85 1.57.85 2.54 0 1.19-.43 2.17-1.28 2.94-.55.49-1.31.86-2.29 1.1l3.86 5.44c.51.7.87 1.14 1.08 1.32.32.24.7.38 1.13.4v.44h-5.06l-5.18-7.32h-1.06zm0-7.88v7.04h.68c1.1 0 1.92-.1 2.46-.3.55-.2.97-.56 1.29-1.09.31-.53.47-1.21.47-2.06 0-1.22-.29-2.13-.86-2.71-.57-.58-1.49-.88-2.77-.88h-1.27zM242.6 175.73l5.65 7.08c.8 1 1.49 1.67 2.06 2.03.42.25.86.38 1.33.38v.44h-8.37v-.44c.53-.05.87-.13 1.02-.25.15-.12.23-.26.23-.44 0-.33-.36-.96-1.09-1.87l-3.69-4.63-.59.5v4.38c0 .84.05 1.36.14 1.56.09.21.28.38.55.53.27.15.7.22 1.29.22v.44h-8.11v-.44h.53c.47 0 .84-.08 1.13-.25.21-.11.36-.3.47-.57.09-.19.13-.69.13-1.49v-10.57c0-.82-.04-1.33-.13-1.54-.09-.2-.26-.39-.53-.54-.26-.15-.62-.23-1.07-.23h-.53v-.44h8v.44c-.55 0-.96.08-1.24.24-.21.11-.37.3-.49.56-.1.2-.14.7-.14 1.52v5l5.96-4.82c.83-.67 1.24-1.21 1.24-1.61 0-.3-.17-.54-.51-.71-.17-.09-.6-.14-1.29-.17v-.44h6.27v.44c-.56.04-1 .14-1.32.3-.32.16-1.06.71-2.21 1.64l-4.69 3.75zM134.6 16.22c-1.43 1.9-2.81 3.85-4.3 5.7-16.56 20.44-13.84 42.25-4.51 64.45 1.92 4.56 4.48 8.86 7.2 14.17 3.02-7.39 5.69-13.9 8.43-20.61-1.47-1.06-2.89-2.07-5.07-3.64h21.3c-5.49 2.29-6.28 7.6-8.32 11.98-2.59 5.58-5.09 11.21-7.43 16.89-.59 1.43-1.16 3.62-.49 4.69 3.71 6.03 7.81 11.83 12.34 18.56 2.37-5.46 4.46-10 6.31-14.63 3.26-8.17 6.57-16.33 9.48-24.63 2.64-7.53 1.51-9.32-5.95-11.43-.61-.17-1.19-.45-1.68-1.37h55.2c-7.43 2.95-6.31 9.24-6.34 15.02-.02 4.87 0 9.75 0 15.59 2.22-1.28 3.81-1.99 5.15-3.01 7.24-5.55 14.42-11.17 21.61-16.78.77-.6 1.52-1.26 2.16-1.99 2.54-2.91 1.89-5.35-1.74-6.72-1.48-.56-2.97-1.11-4.27-2.31H270c-.07.5-.06.95-.14.97-11.76 2.6-18.77 12.32-28.01 18.68-5.64 3.88-10.87 8.34-16.04 12.34 11.29 11.34 22.08 22.67 33.42 33.41 10.19 9.64 24.85 10.96 35.7 2.23.75-.6 1.7-.93 2.56-1.39-2.48 2.78-4.58 6.04-7.49 8.26-20.58 15.71-42.05 12.91-59.02-8.71-5.1-6.51-9.87-13.28-14.83-19.89-1.32-1.77-2.81-3.41-4.9-5.92-.21 2.42-.44 3.87-.45 5.32-.07 8.14-.02 16.28-.13 24.42-.12 8.76-.16 8.78 6.65 14.62h-31.9c1.43-.99 1.93-1.62 2.51-1.7 4.2-.56 4.97-3.33 4.96-6.95-.06-18.66-.02-37.33-.03-55.99 0-4.07.17-8.15-.13-12.2-.11-1.46-1.35-2.84-2.07-4.26-1.3.89-3.21 1.48-3.8 2.71-5.18 10.82-10.48 21.61-15.05 32.7-4.94 12-9.08 24.32-13.68 36.46-1.06 2.8-2.58 5.43-4.49 8.12-2.48-13.93-6.73-26.71-17.61-37.25-1.27 2.71-2.3 4.64-3.09 6.65-3.63 9.22-7.15 18.49-10.84 27.69-.62 1.54-1.91 2.81-3.51 3.94 1.64-9.39-1.24-17.38-5.83-24.93-3.2-5.26-6.49-10.48-9.98-15.56-.8-1.16-2.8-2.53-3.84-2.26-1.8.48-3.71 1.88-4.75 3.44-.91 1.37-.9 3.48-.93 5.27-.1 6.17.09 12.35-.08 18.52-.13 4.9.17 9.42 6.04 11.4-13.75 6.62-22.18 6.22-24.23-10.02-.51.98-.9 2.04-1.55 2.92-9.93 13.32-30.22 14.91-42.85 8.66-12.11-5.99-21.77-14.71-26.12-27.72-5.05-15.06-.2-28.28 10.42-39.25 9.9-10.23 22.38-15.23 36.75-14.78 3.13.1 6.24 1.07 10.61 1.87-2.3-3.53-4.02-6.15-5.73-8.78-3.48-5.37-3.13-7.42 2.06-11.16 1.91-1.38 4.01-2.51 6.59-4.11-3.67 18.23 8.75 29.54 17.18 43.78-3.18-2.2-5.49-3.75-7.75-5.37-14.61-10.45-33.75-6.68-42.53 8.83-10.14 17.91 3.19 42.21 22.43 43.64 7.38.55 13.56-3.01 19.29-7.23.69-.51 1.27-1.64 1.29-2.5.12-4.74.06-9.48.06-14.11-7.5-1.81-15.82-.78-24.22 3.09 2.2-4.06 3.95-7.62 6.07-10.95.52-.81 2.27-1.22 3.43-1.19 12.07.37 24.14.86 37.09 1.35-1.14-2.15-1.82-3.73-2.75-5.15-6.82-10.44-13.94-20.7-20.46-31.33-4.5-7.33-8.26-15.38-5.38-24.2 1.26-3.84 4.06-7.67 7.18-10.32 5.36-4.56 11.98-7.04 18.89-8.24-2.3 4.44-5.29 8.6-6.67 13.24-2.6 8.8-.3 17.48 2.55 25.91 4.62 13.65 21.02 42.9 31.1 55.45 2.04-5.51 4.14-10.58 5.67-15.82.32-1.11-1.19-3-2.24-4.22-5.85-6.82-12.25-13.21-17.6-20.39-4.74-6.36-9.04-13.24-12.33-20.44-7.53-16.47-2.55-31.38 13.24-40.55 5.77-3.35 12.15-5.64 18.24-8.44 1.73-.8 3.41-1.69 5.12-2.54h2.53z"/><path style="stroke:none;stroke-width:1;stroke-dasharray:none;stroke-linecap:butt;stroke-dashoffset:0;stroke-linejoin:miter;stroke-miterlimit:4;is-custom-font:none;font-file-url:none;fill:#171923;fill-rule:evenodd;opacity:1" transform="translate(45.454 148.136) scale(3.0303)" d="m144.45 207.78-.16.32-.87 1.23-1.35 1.75c-1.51 1.97-3.82 4.28-5.71 5.72-.18.18-.4.28-.61.39a.92.92 0 0 1-.31.07c-.24 0-.4-.18-.38-.42.03-.49.36-1.23 1.07-2.56 1.14-2.11 2.27-3.62 3.58-4.7 1.38-1.12 2.97-1.86 4.14-1.86.19-.01.33-.01.6.06zm-25.61 1.61c-2.72 3.23-4.01 4.53-6 6-2.6 1.86-5.2 2.81-7.77 2.81-3.67 0-6.22-2.21-6.01-5.19.28-4.11 4.38-6.88 10.27-6.88 3.49 0 5.29.77 5.79 2.53l-.72-.04h-1.54c-.24 0-.72-.04-1.47-.04-.75-.03-1.4-.03-1.98-.03-1.75 0-3.43.11-4.51.28-1.32.25-2.23 1.02-2.29 1.93-.13 1.86 1.87 3.16 4.82 3.16 2.5 0 4.75-.77 6.42-2.21.73-.6 1.1-1.09 1.87-2.32h3.12zm-3.91 0-1.23-.04-1.57-.04c-.51-.04-.85-.04-1.13-.04h-.93c-5.38 0-6.67.28-6.75 1.51-.09 1.26.81 1.72 3.27 1.72 5.14.02 6.24-.41 8.34-3.11zm14.99-9.68c-.04.56-.3 1.37-.87 2.63-.69 1.61-1.55 3.09-3.66 6.39h-4.35c1.85-1.93 2.59-2.81 3.57-4 1.24-1.61 2.12-2.91 4.43-6.67.68.63.92 1.08.88 1.65zm1.21 9.82.05-.74h-3.32c1.92-3.05 2.51-4.07 2.93-5.26.17-.53.28-1.12.33-1.79.21-3.02-1.66-5.3-4.4-5.3-.31 0-.69.04-1.14.07l-.04.56c.41 0 .58-.04.79-.04.72 0 .99.11 2.15.63l-.43.7-1.85 2.46-1.4 1.93c-.91 1.26-2.44 3.02-4.1 4.74-.26.25-.66.67-1.18 1.19l-3.66-.07c-.25-.91-.43-1.26-.77-1.72-.41-.49-.93-.91-1.49-1.19-1.1-.49-2.48-.77-4.09-.77-6.1 0-11.21 4.04-11.56 9.13-.24 3.47 2.37 6.39 5.69 6.39 2.06 0 4.49-.95 7.46-2.91 3.02-2 4.95-3.69 9.19-8.07l4.55.07c-1.08 1.75-1.43 2.39-1.99 3.54-.47.91-.74 1.75-.78 2.42-.1 1.51.86 2.95 1.96 2.95.75 0 1.71-.46 2.66-1.26.93-.81 1.57-1.48 2.32-2.5-.17.56-.29 1.09-.32 1.49-.07.98.41 1.93 1.12 2.21.13.07.23.11.3.11.55 0 1.55-.67 2.58-1.68.28-.28.53-.54.78-.81l-.03.28c-.08 1.19.41 2 1.27 2 .69 0 1.64-.46 2.69-1.3 1.81-1.44 2.77-2.42 5.13-5.37l-.09.32-.04.04-.16.32-.62 1.02c-.7 1.19-1.32 2.7-1.36 3.37-.07.95.53 1.75 1.25 1.75.51 0 1.14-.25 1.69-.7 2.86-2.36 5.26-6.05 8.21-8.74.26-.25.47-.42.62-.53.54-.39 1.18-.74 1.42-.74.17 0 .23.11.22.32-.01.11-.05.28-.14.49-.6 1.26-1.08 2.18-1.42 2.67-.15.21-.23.35-.27.42l-3.62 6.32h2.12c2.64-3.93 3.73-5.33 5.83-7.55.52-.6 1.07-1.09 1.65-1.58.62-.49 1.29-.84 1.6-.84.21 0 .33.14.32.35-.01.11-.09.28-.17.42l-1.19 2.42-3.59 6.77h2.09c1.11-1.75 1.57-2.46 2.55-3.65 1.32-1.68 2.84-3.37 4.26-4.7 1.13-1.05 2.17-1.72 2.62-1.72.21 0 .33.14.32.35-.02.32-.22.77-1.11 2.18l-.77 1.3-.92 1.47c-.89 1.51-1.34 2.53-1.4 3.4-.07 1.05.43 1.75 1.25 1.75.55 0 1.19-.32 1.81-.88.98-.84 1.47-1.47 2.59-3.26l-.56-.28c-1.29 1.79-1.66 2.21-2.29 2.91-.15.14-.29.28-.44.39-.25.18-.5.28-.67.28-.24 0-.33-.14-.32-.35.01-.21.1-.46.41-.95l3.11-5.33c.58-.98.79-1.58.84-2.25.07-.98-.47-1.65-1.43-1.65-.58 0-1.32.32-2.05.84-1.45 1.09-2.18 1.79-4.63 4.49l.12-.28c.16-.39.32-.74.45-1.05.52-1.12.65-1.4.74-1.79.09-.28.1-.53.12-.81.07-.95-.28-1.44-1.1-1.44-1.44 0-3.28 1.3-5.76 4.07l-.07.07-.78.81c1-2.04 1.25-2.7 1.3-3.47.07-.98-.38-1.51-1.27-1.51-.58 0-1.15.21-1.61.53-.61.42-1.23.98-1.93 1.65-2.4 2.51-5.11 5.95-7.33 7.93-.42.37-.58.46-.75.46-.14 0-.26-.14-.25-.28.01-.11.01-.21.1-.39.08-.21.12-.32.13-.35l4.78-9.16-1.51.07c-.56-.28-1.1-.39-1.82-.39-1.37 0-3.19.56-4.52 1.4-2.24 1.44-4.18 3.72-5.1 5.84-.05.07-.1.13-.14.19-.83 1.05-1.61 1.93-2.41 2.6-.33.32-.68.49-.92.49s-.36-.21-.33-.63c.04-.53.29-1.16 1.2-3.05.24-.46.59-1.16 1.04-2.11.61-1.33 1.08-2.32 1.37-2.95.96-2.04 1.78-4 2.46-5.83.29-.77.47-1.4.5-1.75.06-.81-.19-1.75-.82-3.02l-.46.25c.17.46.2.63.17 1.02-.06.81-.29 1.65-.72 2.53l-1.84 3.79-2.71 5.79-.23.31c-2.38 3.65-4.69 5.93-5.99 5.93-.48 0-.67-.21-.63-.74.06-.88.9-2.67 2.33-5.02l1.5-2.42 3.77-.04z"/><path style="stroke:none;stroke-width:1;stroke-dasharray:none;stroke-linecap:butt;stroke-dashoffset:0;stroke-linejoin:miter;stroke-miterlimit:4;is-custom-font:none;font-file-url:none;fill:#171923;fill-rule:evenodd;opacity:1" transform="translate(45.455 148.136) scale(3.0303)" d="m249.28 207.24-.15.3-.82 1.16-1.28 1.66c-1.42 1.86-3.61 4.04-5.39 5.4-.17.17-.37.27-.58.36-.1.03-.2.07-.3.07-.23 0-.38-.17-.36-.4.03-.46.34-1.16 1.01-2.42 1.08-1.99 2.14-3.41 3.38-4.44 1.3-1.06 2.81-1.76 3.91-1.76.2.01.33.01.58.07zm-50.14 4.52c-.28 4.07-5.41 6.84-12.53 6.84-6.92 0-11.87-2.74-11.62-6.39.28-4 5.22-6.63 12.35-6.63 3.36 0 5.2.67 6.08 2.21.15.28.3.56.45.91l-10.09 1.79c-2.5.42-3.67 1.05-3.74 2-.1 1.4 1.66 2.25 4.68 2.25 3.49 0 6.44-1.02 8.22-2.91.63-.67.94-1.16 1.47-2.42 1.56-.28 2.15-.39 3.15-.49l.93-.14c.59 1.33.72 1.93.65 2.98zm18.42-4.92h-2.06c-1.61 2.53-2.33 3.51-3.89 5.23-1.33 1.4-3.24 3.26-4.22 4.04-.94.74-1.37 1.02-1.58 1.02-.14 0-.2-.07-.2-.14s.05-.21.12-.32l4.01-6.91c.19-.32.33-.84.37-1.33.08-1.12-.49-1.86-1.41-1.86l-7.88 1.06-.15-.35-1.16-2.6-.86-1.9c-1.39-3.12-1.53-3.58-1.46-4.6.12-1.68 1.44-2.95 3.05-2.95 1.61 0 2.34.84 2.23 2.49-.02.32-.15 1.16-.27 1.97l-.22 1.26.64.14c.17-.49.3-.84.38-1.09.29-.74.42-1.19.5-1.3.38-.98.6-1.72.63-2.18.08-1.12-1.4-2.04-3.32-2.04-2.81 0-5.26 2.32-5.46 5.12-.08 1.12.2 2.11 1.14 4.32.53 1.19 1 2.35 1.44 3.4l.26.7-3.63.53c-.59-1.9-1.19-2.6-2.68-3.3-1.33-.56-3.16-.88-5.35-.88-6.99 0-12.16 3.47-12.5 8.42-.33 4.81 4 8.14 10.44 8.14 8.19 0 16.19-5.23 16.57-10.77.04-.6.06-.81.02-1.79 2.44-.35 4.86-.7 7.31-1.03.18-.02.43-.06.41.22v.04c-.05.25-.13.46-.29.7l-.47.81-3.19 5.58c-.35.6-.48 1.02-.52 1.51-.07.98.37 1.61 1.09 1.61.55 0 1.29-.35 2.38-1.16 1.41-1.09 2.18-1.82 4.18-3.97.37-.39.44-.49.78-.81l-.43.7-1.41 2.53c-.2.35-.33.77-.36 1.19-.07.95.57 1.61 1.53 1.61.45 0 .81-.17 1.49-.7 1.2-.94 1.55-1.21 2.64-2.49l.79-.93c-.17.49-.26.9-.28 1.27-.08 1.09.61 2.04 1.44 2.04.55 0 1.26-.32 1.95-.88.88-.69 1.44-1.25 2.42-2.44-.04.22-.07.43-.08.64-.13 1.83.96 2.84 2.73 2.58.52-.08 1.08-.24 1.65-.53 1.83-.92 3.88-3.31 5.22-4.84 1.95-2.22 3.36-4.29 3.99-4.29.27 0 .34.11.32.39-.03.39-.44 1.15-.94 2.18l-.83 1.72-2.78 5.54h2.15c.31-.52 2.28-4.77 2.53-5.16.91-1.46 1.44-2.31 2.22-3.04.28-.26.69-.5.89-.5.21 0 .33.18.31.46-.01.11-.06.35-.18.56l.53.25.43-.7c.5-.85.75-1.41.77-1.8.04-.56-.31-.98-.75-.98-.58 0-1.16.46-2.17 1.65-.19.25-.52.63-.97 1.16.13-.46.2-.85.21-1.13.06-.91-.47-1.58-1.26-1.58-.21 0-.44.03-.67.1-.69.22-2.48 2.53-4.36 4.71-1.18 1.37-3.19 3.72-4.91 4.44-.39.21-1.09.42-1.43.42-.69 0-1.03-.49-.97-1.4.04-.63.14-.98.45-1.61l1.73-.74c3.43-1.51 5.5-3.26 5.61-4.81.07-1.02-.76-1.83-1.9-1.83-1.47 0-3.11.95-4.68 2.74-1.1 1.24-1.94 2.58-2.44 3.87h-.01c-1.72 2.04-2.19 2.49-3.17 3.3-.22.18-.43.32-.65.42-.14.07-.38.11-.52.11-.24 0-.34-.11-.32-.35.02-.25.43-1.23 1.11-2.63l3.15-6.39 1.72-.04.19-.74h-1.58c.4-.92.81-1.84 1.21-2.76.32-1.78.29-3.02-.14-4.2l-3.17 6.96-1.86.06-.22.7 1.72-.03-2.54 5.14-1.96 2.24c-.69.78-1.14 1.16-1.29 1.3-.47.43-.95.84-1.42 1.19-.29.25-.5.35-.68.35-.17 0-.27-.11-.25-.28 0-.07.05-.18.09-.25l1.16-2.46c.4-.81.71-1.4 1.22-2.32.43-.77.94-1.65 1.55-2.63l1.28-2.09zm-23.92 2.64-9.02 1.58c-2.32.42-3.73.98-3.77 1.54-.05.74 1.45 1.26 3.51 1.26 1.78 0 3.72-.32 5.27-.91.81-.32 1.63-.77 2.36-1.4.62-.53.96-.98 1.65-2.07zm37.3-2.41c-.04.63-.58 1.44-1.46 2.28-1.28 1.19-2.18 1.75-4.47 2.77 1.27-3.02 3.68-5.69 5.15-5.69.49.01.81.29.78.64zm20.33 6.07-.52-.4c-1.48 1.82-1.8 2.19-2.87 3.18-.41.33-.55.43-.71.43-.13 0-.25-.13-.24-.27.01-.1.01-.2.09-.36.08-.2.12-.3.12-.33l4.51-8.65-1.43.07c-.53-.27-1.04-.36-1.72-.36-1.29 0-3.01.53-4.27 1.33-2.84 1.82-5.17 5.07-5.34 7.49-.08 1.13.39 1.89 1.2 1.89.65 0 1.55-.43 2.54-1.23 1.71-1.36 2.62-2.29 4.85-5.07l-.09.3-.03.03-.15.3-.58.96c-.66 1.13-1.24 2.55-1.29 3.18-.06.89.5 1.66 1.18 1.66.49 0 1.08-.23 1.6-.66.89-.74 1.31-1.2 3.15-3.49z"/></g></svg>